%TF.GenerationSoftware,Altium Limited,Altium Designer,20.0.13 (296)*%
G04 Layer_Physical_Order=4*
G04 Layer_Color=16711680*
%FSLAX44Y44*%
%MOMM*%
%TF.FileFunction,Copper,L4,Bot,Signal*%
%TF.Part,Single*%
G01*
G75*
%TA.AperFunction,SMDPad,CuDef*%
%ADD15R,0.8500X0.8500*%
%TA.AperFunction,Conductor*%
%ADD23C,0.8000*%
%ADD25C,0.4000*%
%TA.AperFunction,ComponentPad*%
%ADD26C,0.4000*%
%ADD27C,2.0000*%
G04:AMPARAMS|DCode=28|XSize=2mm|YSize=2mm|CornerRadius=0mm|HoleSize=0mm|Usage=FLASHONLY|Rotation=90.000|XOffset=0mm|YOffset=0mm|HoleType=Round|Shape=Octagon|*
%AMOCTAGOND28*
4,1,8,0.5000,1.0000,-0.5000,1.0000,-1.0000,0.5000,-1.0000,-0.5000,-0.5000,-1.0000,0.5000,-1.0000,1.0000,-0.5000,1.0000,0.5000,0.5000,1.0000,0.0*
%
%ADD28OCTAGOND28*%

%TA.AperFunction,ViaPad*%
%ADD29C,6.0000*%
%ADD30C,0.6000*%
%ADD31C,0.8000*%
G36*
X716666Y-366666D02*
X3334D01*
Y-3334D01*
X716666D01*
Y-366666D01*
D02*
G37*
%LPC*%
G36*
X625000Y-44902D02*
X623049Y-45290D01*
X621395Y-46395D01*
X620290Y-48049D01*
X619902Y-50000D01*
X620290Y-51951D01*
X621395Y-53605D01*
X623049Y-54710D01*
X625000Y-55098D01*
X626951Y-54710D01*
X628605Y-53605D01*
X629710Y-51951D01*
X630098Y-50000D01*
X629710Y-48049D01*
X628605Y-46395D01*
X626951Y-45290D01*
X625000Y-44902D01*
D02*
G37*
G36*
X535000Y-58882D02*
X532659Y-59348D01*
X530674Y-60674D01*
X529348Y-62659D01*
X528882Y-65000D01*
X529348Y-67341D01*
X530674Y-69326D01*
X532659Y-70652D01*
X535000Y-71118D01*
X537341Y-70652D01*
X539326Y-69326D01*
X540652Y-67341D01*
X541118Y-65000D01*
X540652Y-62659D01*
X539326Y-60674D01*
X537341Y-59348D01*
X535000Y-58882D01*
D02*
G37*
G36*
X680000Y-7901D02*
X674979Y-8296D01*
X670081Y-9472D01*
X665427Y-11400D01*
X661133Y-14031D01*
X657303Y-17303D01*
X654031Y-21133D01*
X651400Y-25427D01*
X649472Y-30081D01*
X648296Y-34979D01*
X647901Y-40000D01*
X648296Y-45021D01*
X649472Y-49919D01*
X651400Y-54573D01*
X654031Y-58867D01*
X657303Y-62697D01*
X661133Y-65969D01*
X665427Y-68600D01*
X670081Y-70528D01*
X674979Y-71704D01*
X680000Y-72099D01*
X685021Y-71704D01*
X689919Y-70528D01*
X694573Y-68600D01*
X698867Y-65969D01*
X702697Y-62697D01*
X705969Y-58867D01*
X708600Y-54573D01*
X710528Y-49919D01*
X711704Y-45021D01*
X712099Y-40000D01*
X711704Y-34979D01*
X710528Y-30081D01*
X708600Y-25427D01*
X705969Y-21133D01*
X702697Y-17303D01*
X698867Y-14031D01*
X694573Y-11400D01*
X689919Y-9472D01*
X685021Y-8296D01*
X680000Y-7901D01*
D02*
G37*
G36*
X40000D02*
X34979Y-8296D01*
X30081Y-9472D01*
X25427Y-11400D01*
X21133Y-14031D01*
X17303Y-17303D01*
X14031Y-21133D01*
X11400Y-25427D01*
X9472Y-30081D01*
X8296Y-34979D01*
X7901Y-40000D01*
X8296Y-45021D01*
X9472Y-49919D01*
X11400Y-54573D01*
X14031Y-58867D01*
X17303Y-62697D01*
X21133Y-65969D01*
X25427Y-68600D01*
X30081Y-70528D01*
X34979Y-71704D01*
X40000Y-72099D01*
X45021Y-71704D01*
X49919Y-70528D01*
X54573Y-68600D01*
X58867Y-65969D01*
X62697Y-62697D01*
X65969Y-58867D01*
X68600Y-54573D01*
X70528Y-49919D01*
X71704Y-45021D01*
X72099Y-40000D01*
X71704Y-34979D01*
X70528Y-30081D01*
X68600Y-25427D01*
X65969Y-21133D01*
X62697Y-17303D01*
X58867Y-14031D01*
X54573Y-11400D01*
X49919Y-9472D01*
X45021Y-8296D01*
X40000Y-7901D01*
D02*
G37*
G36*
X625000Y-114902D02*
X623049Y-115290D01*
X621395Y-116395D01*
X620290Y-118049D01*
X619902Y-120000D01*
X620290Y-121951D01*
X621395Y-123605D01*
X623049Y-124710D01*
X625000Y-125098D01*
X626951Y-124710D01*
X628605Y-123605D01*
X629710Y-121951D01*
X630098Y-120000D01*
X629710Y-118049D01*
X628605Y-116395D01*
X626951Y-115290D01*
X625000Y-114902D01*
D02*
G37*
G36*
X706000Y-112600D02*
X694000D01*
X688000Y-118600D01*
Y-130600D01*
X694000Y-136600D01*
X706000D01*
X712000Y-130600D01*
Y-118600D01*
X706000Y-112600D01*
D02*
G37*
G36*
X18800Y-112496D02*
X15668Y-112909D01*
X12748Y-114118D01*
X10242Y-116041D01*
X8318Y-118548D01*
X7109Y-121467D01*
X6697Y-124600D01*
X7109Y-127733D01*
X8318Y-130652D01*
X10242Y-133159D01*
X12748Y-135082D01*
X15668Y-136291D01*
X18800Y-136704D01*
X21933Y-136291D01*
X24852Y-135082D01*
X27359Y-133159D01*
X29282Y-130652D01*
X30491Y-127733D01*
X30904Y-124600D01*
X30491Y-121467D01*
X29282Y-118548D01*
X27359Y-116041D01*
X24852Y-114118D01*
X21933Y-112909D01*
X18800Y-112496D01*
D02*
G37*
G36*
X480000Y-164902D02*
X478049Y-165290D01*
X477104Y-165922D01*
X442896D01*
X441951Y-165290D01*
X440000Y-164902D01*
X438049Y-165290D01*
X436395Y-166395D01*
X435290Y-168049D01*
X434902Y-170000D01*
X435290Y-171951D01*
X436395Y-173605D01*
X438049Y-174710D01*
X440000Y-175098D01*
X441951Y-174710D01*
X442896Y-174078D01*
X477104D01*
X478049Y-174710D01*
X480000Y-175098D01*
X481951Y-174710D01*
X483605Y-173605D01*
X484710Y-171951D01*
X485098Y-170000D01*
X484710Y-168049D01*
X483605Y-166395D01*
X481951Y-165290D01*
X480000Y-164902D01*
D02*
G37*
G36*
X701270Y-162919D02*
Y-174130D01*
X712481D01*
X712217Y-172126D01*
X710954Y-169076D01*
X708944Y-166456D01*
X706324Y-164446D01*
X703274Y-163183D01*
X701270Y-162919D01*
D02*
G37*
G36*
X698730D02*
X696726Y-163183D01*
X693676Y-164446D01*
X691056Y-166456D01*
X689046Y-169076D01*
X687783Y-172126D01*
X687519Y-174130D01*
X698730D01*
Y-162919D01*
D02*
G37*
G36*
X24800Y-163400D02*
X12800D01*
X6800Y-169400D01*
Y-181400D01*
X12800Y-187400D01*
X24800D01*
X30800Y-181400D01*
Y-169400D01*
X24800Y-163400D01*
D02*
G37*
G36*
X698730Y-176670D02*
X687519D01*
X687783Y-178674D01*
X689046Y-181724D01*
X691056Y-184344D01*
X693676Y-186354D01*
X696726Y-187617D01*
X698730Y-187881D01*
Y-176670D01*
D02*
G37*
G36*
X712481D02*
X701270D01*
Y-187881D01*
X703274Y-187617D01*
X706324Y-186354D01*
X708944Y-184344D01*
X710954Y-181724D01*
X712217Y-178674D01*
X712481Y-176670D01*
D02*
G37*
G36*
X495000Y-239902D02*
X493049Y-240290D01*
X491395Y-241395D01*
X490290Y-243049D01*
X489902Y-245000D01*
X490290Y-246951D01*
X490922Y-247896D01*
Y-251750D01*
X488750D01*
Y-253922D01*
X481250D01*
Y-251750D01*
X468750D01*
Y-264250D01*
X481250D01*
Y-262078D01*
X487852D01*
X488750Y-262976D01*
X488750Y-264164D01*
X488210Y-265210D01*
X488210Y-265296D01*
Y-270730D01*
X501790D01*
Y-265296D01*
X501790Y-265210D01*
X501250Y-264164D01*
X501250Y-263940D01*
Y-251750D01*
X499078D01*
Y-247896D01*
X499710Y-246951D01*
X500098Y-245000D01*
X499710Y-243049D01*
X498605Y-241395D01*
X496951Y-240290D01*
X495000Y-239902D01*
D02*
G37*
G36*
X481250Y-265750D02*
X468750D01*
Y-278250D01*
X468882D01*
Y-285000D01*
X469348Y-287341D01*
X470674Y-289326D01*
Y-289326D01*
X472659Y-290652D01*
X475000Y-291117D01*
X477341Y-290652D01*
X479326Y-289326D01*
X480652Y-287341D01*
X481118Y-285000D01*
Y-278250D01*
X481250D01*
Y-265750D01*
D02*
G37*
G36*
X501790Y-273270D02*
X488210D01*
Y-278790D01*
X488882D01*
Y-285000D01*
X489348Y-287341D01*
X490674Y-289326D01*
X492659Y-290652D01*
X495000Y-291117D01*
X497341Y-290652D01*
X499326Y-289326D01*
X500652Y-287341D01*
X501118Y-285000D01*
Y-278790D01*
X501790D01*
Y-273270D01*
D02*
G37*
G36*
X396270Y-289604D02*
Y-293730D01*
X400396D01*
X400219Y-292838D01*
X398994Y-291006D01*
X397162Y-289781D01*
X396270Y-289604D01*
D02*
G37*
G36*
X393730D02*
X392838Y-289781D01*
X391006Y-291006D01*
X389781Y-292838D01*
X389604Y-293730D01*
X393730D01*
Y-289604D01*
D02*
G37*
G36*
X400396Y-296270D02*
X396270D01*
Y-300396D01*
X397162Y-300219D01*
X398994Y-298994D01*
X400219Y-297162D01*
X400396Y-296270D01*
D02*
G37*
G36*
X393730D02*
X389604D01*
X389781Y-297162D01*
X391006Y-298994D01*
X392838Y-300219D01*
X393730Y-300396D01*
Y-296270D01*
D02*
G37*
G36*
X680000Y-297901D02*
X674979Y-298296D01*
X670081Y-299472D01*
X665427Y-301400D01*
X661133Y-304031D01*
X657303Y-307303D01*
X654031Y-311133D01*
X651400Y-315427D01*
X649472Y-320081D01*
X648296Y-324979D01*
X647901Y-330000D01*
X648296Y-335021D01*
X649472Y-339919D01*
X651400Y-344573D01*
X654031Y-348867D01*
X657303Y-352697D01*
X661133Y-355969D01*
X665427Y-358600D01*
X670081Y-360528D01*
X674979Y-361704D01*
X680000Y-362099D01*
X685021Y-361704D01*
X689919Y-360528D01*
X694573Y-358600D01*
X698867Y-355969D01*
X702697Y-352697D01*
X705969Y-348867D01*
X708600Y-344573D01*
X710528Y-339919D01*
X711704Y-335021D01*
X712099Y-330000D01*
X711704Y-324979D01*
X710528Y-320081D01*
X708600Y-315427D01*
X705969Y-311133D01*
X702697Y-307303D01*
X698867Y-304031D01*
X694573Y-301400D01*
X689919Y-299472D01*
X685021Y-298296D01*
X680000Y-297901D01*
D02*
G37*
G36*
X40000D02*
X34979Y-298296D01*
X30081Y-299472D01*
X25427Y-301400D01*
X21133Y-304031D01*
X17303Y-307303D01*
X14031Y-311133D01*
X11400Y-315427D01*
X9472Y-320081D01*
X8296Y-324979D01*
X7901Y-330000D01*
X8296Y-335021D01*
X9472Y-339919D01*
X11400Y-344573D01*
X14031Y-348867D01*
X17303Y-352697D01*
X21133Y-355969D01*
X25427Y-358600D01*
X30081Y-360528D01*
X34979Y-361704D01*
X40000Y-362099D01*
X45021Y-361704D01*
X49919Y-360528D01*
X54573Y-358600D01*
X58867Y-355969D01*
X62697Y-352697D01*
X65969Y-348867D01*
X68600Y-344573D01*
X70528Y-339919D01*
X71704Y-335021D01*
X72099Y-330000D01*
X71704Y-324979D01*
X70528Y-320081D01*
X68600Y-315427D01*
X65969Y-311133D01*
X62697Y-307303D01*
X58867Y-304031D01*
X54573Y-301400D01*
X49919Y-299472D01*
X45021Y-298296D01*
X40000Y-297901D01*
D02*
G37*
%LPD*%
D15*
X495000Y-272000D02*
D03*
Y-258000D02*
D03*
X475000D02*
D03*
Y-272000D02*
D03*
D23*
Y-285000D02*
Y-272000D01*
Y-285000D02*
X475000Y-285000D01*
X495000D02*
Y-272000D01*
D25*
X475000Y-258000D02*
X495000D01*
X440000Y-170000D02*
X480000D01*
X495000Y-258000D02*
Y-245000D01*
D26*
X445000Y-209000D02*
D03*
X458000D02*
D03*
X445000Y-235000D02*
D03*
X458000D02*
D03*
Y-222000D02*
D03*
X445000D02*
D03*
D27*
X18800Y-124600D02*
D03*
X700000Y-175400D02*
D03*
D28*
X18800D02*
D03*
X700000Y-124600D02*
D03*
D29*
X680000Y-40000D02*
D03*
X40000Y-330000D02*
D03*
Y-40000D02*
D03*
X680000Y-330000D02*
D03*
D30*
X625000Y-120000D02*
D03*
Y-50000D02*
D03*
X480000Y-170000D02*
D03*
X440000D02*
D03*
X475000Y-285000D02*
D03*
X395000Y-295000D02*
D03*
X495000Y-285000D02*
D03*
Y-245000D02*
D03*
D31*
X535000Y-65000D02*
D03*
%TF.MD5,259b2121866bc01459f334c76dfce737*%
M02*
