%TF.GenerationSoftware,Altium Limited,Altium Designer,20.0.13 (296)*%
G04 Layer_Color=16711935*
%FSLAX44Y44*%
%MOMM*%
%TF.FileFunction,Other,Mechanical_13*%
%TF.Part,Single*%
G01*
G75*
%TA.AperFunction,NonConductor*%
%ADD32C,0.2000*%
%ADD41C,0.1270*%
G36*
X105000Y-173500D02*
X104993Y-173238D01*
X104973Y-172977D01*
X104938Y-172718D01*
X104891Y-172460D01*
X104830Y-172206D01*
X104755Y-171955D01*
X104668Y-171708D01*
X104568Y-171466D01*
X104455Y-171230D01*
X104330Y-171000D01*
X104193Y-170777D01*
X104045Y-170561D01*
X103886Y-170353D01*
X103716Y-170154D01*
X103535Y-169965D01*
X103346Y-169784D01*
X103147Y-169614D01*
X102939Y-169455D01*
X102723Y-169307D01*
X102500Y-169170D01*
X102270Y-169045D01*
X102034Y-168932D01*
X101792Y-168832D01*
X101545Y-168745D01*
X101294Y-168670D01*
X101039Y-168609D01*
X100782Y-168562D01*
X100523Y-168527D01*
X100262Y-168507D01*
X100000Y-168500D01*
X99738Y-168507D01*
X99477Y-168527D01*
X99218Y-168562D01*
X98961Y-168609D01*
X98706Y-168670D01*
X98455Y-168745D01*
X98208Y-168832D01*
X97966Y-168932D01*
X97730Y-169045D01*
X97500Y-169170D01*
X97277Y-169307D01*
X97061Y-169455D01*
X96853Y-169614D01*
X96654Y-169784D01*
X96465Y-169965D01*
X96284Y-170154D01*
X96114Y-170353D01*
X95955Y-170561D01*
X95807Y-170777D01*
X95670Y-171000D01*
X95545Y-171230D01*
X95432Y-171466D01*
X95332Y-171708D01*
X95245Y-171955D01*
X95170Y-172206D01*
X95109Y-172460D01*
X95062Y-172718D01*
X95027Y-172977D01*
X95007Y-173238D01*
X95000Y-173500D01*
X84000D01*
Y-165000D01*
X116000D01*
Y-173500D01*
X105000D01*
D02*
G37*
G36*
X84000Y-135000D02*
Y-127500D01*
X95000D01*
X95007Y-127762D01*
X95027Y-128023D01*
X95062Y-128282D01*
X95109Y-128540D01*
X95170Y-128794D01*
X95245Y-129045D01*
X95332Y-129292D01*
X95432Y-129534D01*
X95545Y-129770D01*
X95670Y-130000D01*
X95807Y-130223D01*
X95955Y-130439D01*
X96114Y-130647D01*
X96284Y-130846D01*
X96465Y-131035D01*
X96654Y-131216D01*
X96853Y-131386D01*
X97061Y-131545D01*
X97277Y-131693D01*
X97500Y-131830D01*
X97730Y-131955D01*
X97966Y-132068D01*
X98208Y-132168D01*
X98455Y-132255D01*
X98706Y-132330D01*
X98961Y-132391D01*
X99218Y-132438D01*
X99477Y-132473D01*
X99738Y-132493D01*
X100000Y-132500D01*
X100262Y-132493D01*
X100523Y-132473D01*
X100782Y-132438D01*
X101039Y-132391D01*
X101294Y-132330D01*
X101545Y-132255D01*
X101792Y-132168D01*
X102034Y-132068D01*
X102270Y-131955D01*
X102500Y-131830D01*
X102723Y-131693D01*
X102939Y-131545D01*
X103147Y-131386D01*
X103346Y-131216D01*
X103535Y-131035D01*
X103716Y-130846D01*
X103886Y-130647D01*
X104045Y-130439D01*
X104193Y-130223D01*
X104330Y-130000D01*
X104455Y-129770D01*
X104568Y-129534D01*
X104668Y-129292D01*
X104755Y-129045D01*
X104830Y-128794D01*
X104891Y-128540D01*
X104938Y-128282D01*
X104973Y-128023D01*
X104993Y-127762D01*
X105000Y-127500D01*
X116000D01*
Y-135000D01*
X84000D01*
D02*
G37*
D32*
X296000Y-222000D02*
G03*
X296000Y-222000I-1000J0D01*
G01*
X234300Y-251950D02*
G03*
X234300Y-251950I-1000J0D01*
G01*
D41*
X95000Y-127500D02*
G03*
X105000Y-127500I5000J0D01*
G01*
Y-173500D02*
G03*
X95000Y-173500I-5000J0D01*
G01*
X116000Y-139000D02*
Y-127500D01*
Y-173500D02*
Y-161000D01*
X105000Y-173500D02*
X116000D01*
X84000D02*
X95000D01*
X84000D02*
Y-161000D01*
Y-139000D02*
Y-127500D01*
X95000D01*
X105000D02*
X116000D01*
X282250Y-164250D02*
X335250D01*
X282250Y-217250D02*
Y-164250D01*
Y-217250D02*
X335250D01*
Y-164250D01*
X296500Y-302000D02*
Y-252000D01*
X256500Y-302000D02*
Y-252000D01*
Y-302000D02*
X296500D01*
X256500Y-252000D02*
X296500D01*
%TF.MD5,a0b1dbe703a8f518f0156fd7579fe10f*%
M02*
