%TF.GenerationSoftware,Altium Limited,Altium Designer,20.0.13 (296)*%
G04 Layer_Physical_Order=3*
G04 Layer_Color=16440176*
%FSLAX44Y44*%
%MOMM*%
%TF.FileFunction,Copper,L3,Inr,Signal*%
%TF.Part,Single*%
G01*
G75*
%TA.AperFunction,ComponentPad*%
%ADD27C,0.4000*%
%ADD28C,2.0000*%
G04:AMPARAMS|DCode=29|XSize=2mm|YSize=2mm|CornerRadius=0mm|HoleSize=0mm|Usage=FLASHONLY|Rotation=90.000|XOffset=0mm|YOffset=0mm|HoleType=Round|Shape=Octagon|*
%AMOCTAGOND29*
4,1,8,0.5000,1.0000,-0.5000,1.0000,-1.0000,0.5000,-1.0000,-0.5000,-0.5000,-1.0000,0.5000,-1.0000,1.0000,-0.5000,1.0000,0.5000,0.5000,1.0000,0.0*
%
%ADD29OCTAGOND29*%

%TA.AperFunction,ViaPad*%
%ADD30C,6.0000*%
%ADD31C,0.6000*%
G36*
X716666Y-366666D02*
X281395D01*
X281270Y-365396D01*
X282162Y-365219D01*
X283994Y-363994D01*
X285219Y-362162D01*
X285396Y-361270D01*
X274604D01*
X274781Y-362162D01*
X276006Y-363994D01*
X277838Y-365219D01*
X278730Y-365396D01*
X278605Y-366666D01*
X3334D01*
Y-3334D01*
X716666D01*
Y-366666D01*
D02*
G37*
%LPC*%
G36*
X680000Y-7901D02*
X674979Y-8296D01*
X670081Y-9472D01*
X665427Y-11400D01*
X661133Y-14031D01*
X657303Y-17303D01*
X654031Y-21133D01*
X651400Y-25427D01*
X649472Y-30081D01*
X648296Y-34979D01*
X647901Y-40000D01*
X648296Y-45021D01*
X649472Y-49919D01*
X651400Y-54573D01*
X654031Y-58867D01*
X657303Y-62697D01*
X661133Y-65969D01*
X665427Y-68600D01*
X670081Y-70528D01*
X674979Y-71704D01*
X680000Y-72099D01*
X685021Y-71704D01*
X689919Y-70528D01*
X694573Y-68600D01*
X698867Y-65969D01*
X702697Y-62697D01*
X705969Y-58867D01*
X708600Y-54573D01*
X710528Y-49919D01*
X711704Y-45021D01*
X712099Y-40000D01*
X711704Y-34979D01*
X710528Y-30081D01*
X708600Y-25427D01*
X705969Y-21133D01*
X702697Y-17303D01*
X698867Y-14031D01*
X694573Y-11400D01*
X689919Y-9472D01*
X685021Y-8296D01*
X680000Y-7901D01*
D02*
G37*
G36*
X40000D02*
X34979Y-8296D01*
X30081Y-9472D01*
X25427Y-11400D01*
X21133Y-14031D01*
X17303Y-17303D01*
X14031Y-21133D01*
X11400Y-25427D01*
X9472Y-30081D01*
X8296Y-34979D01*
X7901Y-40000D01*
X8296Y-45021D01*
X9472Y-49919D01*
X11400Y-54573D01*
X14031Y-58867D01*
X17303Y-62697D01*
X21133Y-65969D01*
X25427Y-68600D01*
X30081Y-70528D01*
X34979Y-71704D01*
X40000Y-72099D01*
X45021Y-71704D01*
X49919Y-70528D01*
X54573Y-68600D01*
X58867Y-65969D01*
X62697Y-62697D01*
X65969Y-58867D01*
X68600Y-54573D01*
X70528Y-49919D01*
X71704Y-45021D01*
X72099Y-40000D01*
X71704Y-34979D01*
X70528Y-30081D01*
X68600Y-25427D01*
X65969Y-21133D01*
X62697Y-17303D01*
X58867Y-14031D01*
X54573Y-11400D01*
X49919Y-9472D01*
X45021Y-8296D01*
X40000Y-7901D01*
D02*
G37*
G36*
X631270Y-114604D02*
Y-118730D01*
X635396D01*
X635219Y-117838D01*
X633994Y-116006D01*
X632162Y-114781D01*
X631270Y-114604D01*
D02*
G37*
G36*
X628730D02*
X627838Y-114781D01*
X626006Y-116006D01*
X624781Y-117838D01*
X624604Y-118730D01*
X628730D01*
Y-114604D01*
D02*
G37*
G36*
X581270D02*
Y-118730D01*
X585396D01*
X585219Y-117838D01*
X583994Y-116006D01*
X582162Y-114781D01*
X581270Y-114604D01*
D02*
G37*
G36*
X578730D02*
X577838Y-114781D01*
X576006Y-116006D01*
X574781Y-117838D01*
X574604Y-118730D01*
X578730D01*
Y-114604D01*
D02*
G37*
G36*
X706270Y-112060D02*
X701270D01*
Y-123330D01*
X712540D01*
Y-118330D01*
X706270Y-112060D01*
D02*
G37*
G36*
X698730D02*
X693730D01*
X687460Y-118330D01*
Y-123330D01*
X698730D01*
Y-112060D01*
D02*
G37*
G36*
X635396Y-121270D02*
X631270D01*
Y-125396D01*
X632162Y-125218D01*
X633994Y-123994D01*
X635219Y-122162D01*
X635396Y-121270D01*
D02*
G37*
G36*
X628730D02*
X624604D01*
X624781Y-122162D01*
X626006Y-123994D01*
X627838Y-125218D01*
X628730Y-125396D01*
Y-121270D01*
D02*
G37*
G36*
X585396D02*
X581270D01*
Y-125396D01*
X582162Y-125218D01*
X583994Y-123994D01*
X585219Y-122162D01*
X585396Y-121270D01*
D02*
G37*
G36*
X578730D02*
X574604D01*
X574781Y-122162D01*
X576006Y-123994D01*
X577838Y-125218D01*
X578730Y-125396D01*
Y-121270D01*
D02*
G37*
G36*
X491270Y-124604D02*
Y-128730D01*
X495396D01*
X495219Y-127838D01*
X493994Y-126006D01*
X492162Y-124781D01*
X491270Y-124604D01*
D02*
G37*
G36*
X488730D02*
X487838Y-124781D01*
X486006Y-126006D01*
X484781Y-127838D01*
X484604Y-128730D01*
X488730D01*
Y-124604D01*
D02*
G37*
G36*
X495396Y-131270D02*
X491270D01*
Y-135396D01*
X492162Y-135219D01*
X493994Y-133994D01*
X495219Y-132162D01*
X495396Y-131270D01*
D02*
G37*
G36*
X488730D02*
X484604D01*
X484781Y-132162D01*
X486006Y-133994D01*
X487838Y-135219D01*
X488730Y-135396D01*
Y-131270D01*
D02*
G37*
G36*
X18800Y-112496D02*
X15668Y-112909D01*
X12748Y-114118D01*
X10242Y-116041D01*
X8318Y-118548D01*
X7109Y-121467D01*
X6697Y-124600D01*
X7109Y-127733D01*
X8318Y-130652D01*
X10242Y-133159D01*
X12748Y-135082D01*
X15668Y-136291D01*
X18800Y-136704D01*
X21933Y-136291D01*
X24852Y-135082D01*
X27359Y-133159D01*
X29282Y-130652D01*
X30491Y-127733D01*
X30904Y-124600D01*
X30491Y-121467D01*
X29282Y-118548D01*
X27359Y-116041D01*
X24852Y-114118D01*
X21933Y-112909D01*
X18800Y-112496D01*
D02*
G37*
G36*
X712540Y-125870D02*
X701270D01*
Y-137140D01*
X706270D01*
X712540Y-130870D01*
Y-125870D01*
D02*
G37*
G36*
X698730D02*
X687460D01*
Y-130870D01*
X693730Y-137140D01*
X698730D01*
Y-125870D01*
D02*
G37*
G36*
X24800Y-163400D02*
X12800D01*
X6800Y-169400D01*
Y-181400D01*
X12800Y-187400D01*
X24800D01*
X30800Y-181400D01*
Y-169400D01*
X24800Y-163400D01*
D02*
G37*
G36*
X700000Y-163296D02*
X696867Y-163709D01*
X693948Y-164918D01*
X691441Y-166842D01*
X689518Y-169348D01*
X688309Y-172267D01*
X687896Y-175400D01*
X688309Y-178533D01*
X689518Y-181452D01*
X691441Y-183958D01*
X693948Y-185882D01*
X696867Y-187091D01*
X700000Y-187504D01*
X703133Y-187091D01*
X706052Y-185882D01*
X708559Y-183958D01*
X710482Y-181452D01*
X711691Y-178533D01*
X712104Y-175400D01*
X711691Y-172267D01*
X710482Y-169348D01*
X708559Y-166842D01*
X706052Y-164918D01*
X703133Y-163709D01*
X700000Y-163296D01*
D02*
G37*
G36*
X320000Y-224902D02*
X318049Y-225290D01*
X316395Y-226395D01*
X315290Y-228049D01*
X314902Y-230000D01*
X315290Y-231951D01*
X316395Y-233605D01*
X318049Y-234710D01*
X320000Y-235098D01*
X321951Y-234710D01*
X323605Y-233605D01*
X324710Y-231951D01*
X325098Y-230000D01*
X324710Y-228049D01*
X323605Y-226395D01*
X321951Y-225290D01*
X320000Y-224902D01*
D02*
G37*
G36*
X283000Y-259922D02*
X281439Y-260232D01*
X280116Y-261116D01*
X279232Y-262439D01*
X278922Y-264000D01*
X279232Y-265561D01*
X280116Y-266884D01*
X281439Y-267768D01*
X283000Y-268078D01*
X284561Y-267768D01*
X285884Y-266884D01*
X286768Y-265561D01*
X287078Y-264000D01*
X286768Y-262439D01*
X285884Y-261116D01*
X284561Y-260232D01*
X283000Y-259922D01*
D02*
G37*
G36*
X270000D02*
X268439Y-260232D01*
X267116Y-261116D01*
X266232Y-262439D01*
X265922Y-264000D01*
X266232Y-265561D01*
X267116Y-266884D01*
X268439Y-267768D01*
X270000Y-268078D01*
X271561Y-267768D01*
X272884Y-266884D01*
X273768Y-265561D01*
X274078Y-264000D01*
X273768Y-262439D01*
X272884Y-261116D01*
X271561Y-260232D01*
X270000Y-259922D01*
D02*
G37*
G36*
X320000Y-264902D02*
X318049Y-265290D01*
X316395Y-266395D01*
X315290Y-268049D01*
X314902Y-270000D01*
X315290Y-271951D01*
X316395Y-273605D01*
X318049Y-274710D01*
X320000Y-275098D01*
X321951Y-274710D01*
X323605Y-273605D01*
X324710Y-271951D01*
X325098Y-270000D01*
X324710Y-268049D01*
X323605Y-266395D01*
X321951Y-265290D01*
X320000Y-264902D01*
D02*
G37*
G36*
X200000D02*
X198049Y-265290D01*
X196395Y-266395D01*
X195290Y-268049D01*
X194902Y-270000D01*
X195290Y-271951D01*
X196395Y-273605D01*
X198049Y-274710D01*
X200000Y-275098D01*
X201951Y-274710D01*
X203605Y-273605D01*
X204710Y-271951D01*
X205098Y-270000D01*
X204710Y-268049D01*
X203605Y-266395D01*
X201951Y-265290D01*
X200000Y-264902D01*
D02*
G37*
G36*
X283000Y-272922D02*
X281439Y-273232D01*
X280116Y-274116D01*
X279232Y-275439D01*
X278922Y-277000D01*
X279232Y-278561D01*
X280116Y-279884D01*
X281439Y-280768D01*
X283000Y-281078D01*
X284561Y-280768D01*
X285884Y-279884D01*
X286768Y-278561D01*
X287078Y-277000D01*
X286768Y-275439D01*
X285884Y-274116D01*
X284561Y-273232D01*
X283000Y-272922D01*
D02*
G37*
G36*
X270000D02*
X268439Y-273232D01*
X267116Y-274116D01*
X266232Y-275439D01*
X265922Y-277000D01*
X266232Y-278561D01*
X267116Y-279884D01*
X268439Y-280768D01*
X270000Y-281078D01*
X271561Y-280768D01*
X272884Y-279884D01*
X273768Y-278561D01*
X274078Y-277000D01*
X273768Y-275439D01*
X272884Y-274116D01*
X271561Y-273232D01*
X270000Y-272922D01*
D02*
G37*
G36*
X283000Y-285922D02*
X281439Y-286232D01*
X280116Y-287116D01*
X279232Y-288439D01*
X278922Y-290000D01*
X279232Y-291561D01*
X280116Y-292884D01*
X281439Y-293768D01*
X283000Y-294078D01*
X284561Y-293768D01*
X285884Y-292884D01*
X286768Y-291561D01*
X287078Y-290000D01*
X286768Y-288439D01*
X285884Y-287116D01*
X284561Y-286232D01*
X283000Y-285922D01*
D02*
G37*
G36*
X270000D02*
X268439Y-286232D01*
X267116Y-287116D01*
X266232Y-288439D01*
X265922Y-290000D01*
X266232Y-291561D01*
X267116Y-292884D01*
X268439Y-293768D01*
X270000Y-294078D01*
X271561Y-293768D01*
X272884Y-292884D01*
X273768Y-291561D01*
X274078Y-290000D01*
X273768Y-288439D01*
X272884Y-287116D01*
X271561Y-286232D01*
X270000Y-285922D01*
D02*
G37*
G36*
X320000Y-294902D02*
X318049Y-295290D01*
X316395Y-296395D01*
X315290Y-298049D01*
X314902Y-300000D01*
X315290Y-301951D01*
X316395Y-303605D01*
X318049Y-304710D01*
X320000Y-305098D01*
X321951Y-304710D01*
X323605Y-303605D01*
X324710Y-301951D01*
X325098Y-300000D01*
X324710Y-298049D01*
X323605Y-296395D01*
X321951Y-295290D01*
X320000Y-294902D01*
D02*
G37*
G36*
X220000Y-344902D02*
X218049Y-345290D01*
X216395Y-346395D01*
X215290Y-348049D01*
X214902Y-350000D01*
X215290Y-351951D01*
X216395Y-353605D01*
X218049Y-354710D01*
X220000Y-355098D01*
X221951Y-354710D01*
X223605Y-353605D01*
X224710Y-351951D01*
X225098Y-350000D01*
X224710Y-348049D01*
X223605Y-346395D01*
X221951Y-345290D01*
X220000Y-344902D01*
D02*
G37*
G36*
X281270Y-354604D02*
Y-358730D01*
X285396D01*
X285219Y-357838D01*
X283994Y-356006D01*
X282162Y-354781D01*
X281270Y-354604D01*
D02*
G37*
G36*
X278730D02*
X277838Y-354781D01*
X276006Y-356006D01*
X274781Y-357838D01*
X274604Y-358730D01*
X278730D01*
Y-354604D01*
D02*
G37*
G36*
X680000Y-297901D02*
X674979Y-298296D01*
X670081Y-299472D01*
X665427Y-301400D01*
X661133Y-304031D01*
X657303Y-307303D01*
X654031Y-311133D01*
X651400Y-315427D01*
X649472Y-320081D01*
X648296Y-324979D01*
X647901Y-330000D01*
X648296Y-335021D01*
X649472Y-339919D01*
X651400Y-344573D01*
X654031Y-348867D01*
X657303Y-352697D01*
X661133Y-355969D01*
X665427Y-358600D01*
X670081Y-360528D01*
X674979Y-361704D01*
X680000Y-362099D01*
X685021Y-361704D01*
X689919Y-360528D01*
X694573Y-358600D01*
X698867Y-355969D01*
X702697Y-352697D01*
X705969Y-348867D01*
X708600Y-344573D01*
X710528Y-339919D01*
X711704Y-335021D01*
X712099Y-330000D01*
X711704Y-324979D01*
X710528Y-320081D01*
X708600Y-315427D01*
X705969Y-311133D01*
X702697Y-307303D01*
X698867Y-304031D01*
X694573Y-301400D01*
X689919Y-299472D01*
X685021Y-298296D01*
X680000Y-297901D01*
D02*
G37*
G36*
X40000D02*
X34979Y-298296D01*
X30081Y-299472D01*
X25427Y-301400D01*
X21133Y-304031D01*
X17303Y-307303D01*
X14031Y-311133D01*
X11400Y-315427D01*
X9472Y-320081D01*
X8296Y-324979D01*
X7901Y-330000D01*
X8296Y-335021D01*
X9472Y-339919D01*
X11400Y-344573D01*
X14031Y-348867D01*
X17303Y-352697D01*
X21133Y-355969D01*
X25427Y-358600D01*
X30081Y-360528D01*
X34979Y-361704D01*
X40000Y-362099D01*
X45021Y-361704D01*
X49919Y-360528D01*
X54573Y-358600D01*
X58867Y-355969D01*
X62697Y-352697D01*
X65969Y-348867D01*
X68600Y-344573D01*
X70528Y-339919D01*
X71704Y-335021D01*
X72099Y-330000D01*
X71704Y-324979D01*
X70528Y-320081D01*
X68600Y-315427D01*
X65969Y-311133D01*
X62697Y-307303D01*
X58867Y-304031D01*
X54573Y-301400D01*
X49919Y-299472D01*
X45021Y-298296D01*
X40000Y-297901D01*
D02*
G37*
G36*
X310000Y-354902D02*
X308049Y-355290D01*
X306395Y-356395D01*
X305290Y-358049D01*
X304902Y-360000D01*
X305290Y-361951D01*
X306395Y-363605D01*
X308049Y-364710D01*
X310000Y-365098D01*
X311951Y-364710D01*
X313605Y-363605D01*
X314710Y-361951D01*
X315098Y-360000D01*
X314710Y-358049D01*
X313605Y-356395D01*
X311951Y-355290D01*
X310000Y-354902D01*
D02*
G37*
%LPD*%
D27*
X270000Y-264000D02*
D03*
X283000D02*
D03*
X270000Y-290000D02*
D03*
X283000D02*
D03*
Y-277000D02*
D03*
X270000D02*
D03*
D28*
X18800Y-124600D02*
D03*
X700000Y-175400D02*
D03*
D29*
X18800D02*
D03*
X700000Y-124600D02*
D03*
D30*
X680000Y-40000D02*
D03*
X40000Y-330000D02*
D03*
Y-40000D02*
D03*
X680000Y-330000D02*
D03*
D31*
X320000Y-270000D02*
D03*
Y-230000D02*
D03*
X490000Y-130000D02*
D03*
X200000Y-270000D02*
D03*
X280000Y-360000D02*
D03*
X220000Y-350000D02*
D03*
X580000Y-120000D02*
D03*
X630000D02*
D03*
X310000Y-360000D02*
D03*
X320000Y-300000D02*
D03*
%TF.MD5,e3d3d4258d2068b7904b1186a6fd23ac*%
M02*
