%TF.GenerationSoftware,Altium Limited,Altium Designer,20.0.13 (296)*%
G04 Layer_Color=16711935*
%FSLAX44Y44*%
%MOMM*%
%TF.FileFunction,Other,Mechanical_1*%
%TF.Part,Single*%
G01*
G75*
%TA.AperFunction,OtherPad,Pad VD2-5 (21mm,-18mm)*%
%ADD55C,0.5000*%
%TA.AperFunction,OtherPad,Free Pad (16.98mm,-17.1mm)*%
%ADD56C,0.5000*%
%TA.AperFunction,OtherPad,Pad X1-14 (5.78mm,-19.5mm)*%
%ADD57C,0.5000*%
%TA.AperFunction,OtherPad,Pad X2-14 (66.1mm,-10.5mm)*%
%ADD58C,0.5000*%
%TA.AperFunction,NonConductor*%
%ADD59C,0.1000*%
D55*
X210000Y-180000D02*
D03*
D56*
X169800Y-171000D02*
D03*
D57*
X57800Y-195000D02*
D03*
D58*
X661000Y-105000D02*
D03*
D59*
X491000Y-273000D02*
X499001D01*
X491000Y-257000D02*
X499001D01*
Y-273000D02*
Y-257000D01*
X491000Y-273000D02*
Y-257000D01*
X470999Y-257000D02*
X479000D01*
X470999Y-273000D02*
X479000D01*
X470999D02*
Y-257000D01*
X479000Y-273000D02*
Y-257000D01*
X472502Y-54001D02*
X597501D01*
X472502Y-183002D02*
X597501D01*
Y-54001D01*
X472502Y-183002D02*
Y-54001D01*
X627750Y-166000D02*
Y-134000D01*
X612250Y-166000D02*
Y-134000D01*
X627750D01*
X612250Y-166000D02*
X627750D01*
X201999Y-184499D02*
X213999D01*
Y-161499D01*
X201999D02*
X213999D01*
X201999Y-184499D02*
Y-161499D01*
X139361Y-68504D02*
X220641D01*
Y-131496D02*
Y-68504D01*
X139361Y-131496D02*
X220641D01*
X139361D02*
Y-68504D01*
X195000Y-131496D02*
Y-68504D01*
X143600Y-166800D02*
X174000D01*
X143600Y-193200D02*
Y-166800D01*
Y-193200D02*
X174000D01*
Y-166800D01*
X-26750Y-200800D02*
Y-99200D01*
X63250D01*
Y-200800D02*
Y-99200D01*
X-26750Y-200800D02*
X63250D01*
X246000Y-208000D02*
Y-192000D01*
X254001Y-208000D02*
Y-192000D01*
X246000Y-208000D02*
X254001D01*
X246000Y-192000D02*
X254001D01*
X356356Y-172500D02*
X381247D01*
X356356Y-212504D02*
Y-172500D01*
Y-212504D02*
X381247D01*
Y-172500D01*
X232000Y-166000D02*
X248000D01*
X232000Y-174001D02*
X248000D01*
X232000D02*
Y-166000D01*
X248000Y-174001D02*
Y-166000D01*
X421000Y-188000D02*
Y-172000D01*
X429001Y-188000D02*
Y-172000D01*
X421000Y-188000D02*
X429001D01*
X421000Y-172000D02*
X429001D01*
X399000Y-226000D02*
Y-210000D01*
X390999Y-226000D02*
Y-210000D01*
X399000D01*
X390999Y-226000D02*
X399000D01*
X535501Y-240000D02*
X574501D01*
X535501Y-272501D02*
X574501D01*
X574501Y-217501D02*
X574501Y-272501D01*
X535501Y-217501D02*
X574501D01*
X535501Y-272501D02*
Y-217501D01*
X612250Y-96000D02*
X627750D01*
X612250Y-64000D02*
X627750D01*
X612250Y-96000D02*
Y-64000D01*
X627750Y-96000D02*
Y-64000D01*
X399000Y-280000D02*
Y-264000D01*
X390999Y-280000D02*
Y-264000D01*
X399000D01*
X390999Y-280000D02*
X399000D01*
X511000Y-233000D02*
Y-217000D01*
X519001Y-233000D02*
Y-217000D01*
X511000Y-233000D02*
X519001D01*
X511000Y-217000D02*
X519001D01*
X745550Y-200800D02*
Y-99200D01*
X655550Y-200800D02*
X745550D01*
X655550D02*
Y-99200D01*
X745550D01*
%TF.MD5,b015e3a4a99a949127786d8c10676bde*%
M02*
