%TF.GenerationSoftware,Altium Limited,Altium Designer,20.0.13 (296)*%
G04 Layer_Physical_Order=1*
G04 Layer_Color=255*
%FSLAX44Y44*%
%MOMM*%
%TF.FileFunction,Copper,L1,Top,Signal*%
%TF.Part,Single*%
G01*
G75*
%TA.AperFunction,SMDPad,CuDef*%
%ADD10R,0.5000X0.8500*%
%ADD11R,2.4000X3.3000*%
%ADD12R,0.6000X1.0000*%
%ADD13R,0.8500X0.8500*%
%ADD14R,3.1500X1.7800*%
%ADD15R,0.7500X0.7500*%
%ADD16R,2.6000X1.1000*%
%ADD17R,0.8500X0.8500*%
%ADD18R,5.0000X3.2000*%
%ADD19R,2.4000X3.1000*%
G04:AMPARAMS|DCode=20|XSize=1.97mm|YSize=0.6mm|CornerRadius=0.075mm|HoleSize=0mm|Usage=FLASHONLY|Rotation=0.000|XOffset=0mm|YOffset=0mm|HoleType=Round|Shape=RoundedRectangle|*
%AMROUNDEDRECTD20*
21,1,1.9700,0.4500,0,0,0.0*
21,1,1.8200,0.6000,0,0,0.0*
1,1,0.1500,0.9100,-0.2250*
1,1,0.1500,-0.9100,-0.2250*
1,1,0.1500,-0.9100,0.2250*
1,1,0.1500,0.9100,0.2250*
%
%ADD20ROUNDEDRECTD20*%
%ADD21R,2.3000X2.5000*%
%ADD22R,1.6000X1.0000*%
%TA.AperFunction,Conductor*%
%ADD23C,0.4000*%
%ADD24C,1.0000*%
%ADD25C,0.8000*%
%ADD26C,3.0000*%
%TA.AperFunction,ComponentPad*%
%ADD27C,0.4000*%
%ADD28C,2.0000*%
G04:AMPARAMS|DCode=29|XSize=2mm|YSize=2mm|CornerRadius=0mm|HoleSize=0mm|Usage=FLASHONLY|Rotation=90.000|XOffset=0mm|YOffset=0mm|HoleType=Round|Shape=Octagon|*
%AMOCTAGOND29*
4,1,8,0.5000,1.0000,-0.5000,1.0000,-1.0000,0.5000,-1.0000,-0.5000,-0.5000,-1.0000,0.5000,-1.0000,1.0000,-0.5000,1.0000,0.5000,0.5000,1.0000,0.0*
%
%ADD29OCTAGOND29*%

%TA.AperFunction,ViaPad*%
%ADD30C,6.0000*%
%ADD31C,0.6000*%
G36*
X260000Y-163883D02*
X253790D01*
Y-163210D01*
X248270D01*
Y-170000D01*
Y-176790D01*
X253790D01*
Y-176117D01*
X260000D01*
Y-202922D01*
X257148D01*
X256250Y-202024D01*
X256250Y-200836D01*
X256790Y-199790D01*
X256790Y-199704D01*
Y-194270D01*
X243210D01*
Y-199704D01*
X243210Y-199790D01*
X243750Y-200836D01*
X243750Y-201060D01*
Y-202922D01*
X218689D01*
X212078Y-196311D01*
Y-192250D01*
X212500D01*
Y-179750D01*
X203500D01*
Y-181922D01*
X184000D01*
X182439Y-182232D01*
X181116Y-183116D01*
X181116Y-183116D01*
X176311Y-187922D01*
X163800D01*
Y-185000D01*
X153800D01*
Y-199000D01*
X163800D01*
Y-196078D01*
X178000D01*
X178000Y-196078D01*
X179561Y-195768D01*
X180884Y-194884D01*
X185689Y-190078D01*
X203500D01*
Y-192250D01*
X203922D01*
Y-198000D01*
X203922Y-198000D01*
X204232Y-199561D01*
X205116Y-200884D01*
X214116Y-209884D01*
X214116Y-209884D01*
X215439Y-210768D01*
X217000Y-211078D01*
X217000Y-211078D01*
X243750D01*
Y-213250D01*
X256250D01*
Y-211078D01*
X260000D01*
Y-220000D01*
X250000Y-230000D01*
X3334D01*
Y-80000D01*
X197712Y-80000D01*
X198460Y-81270D01*
Y-98730D01*
X227540D01*
Y-81270D01*
X227540Y-80960D01*
X228288Y-80000D01*
X260000D01*
Y-163883D01*
D02*
G37*
G36*
X281250Y-207250D02*
X294250D01*
Y-197250D01*
X304250D01*
Y-214250D01*
X281250D01*
Y-207250D01*
D02*
G37*
G36*
X294250Y-174250D02*
X281250D01*
Y-167250D01*
X304250D01*
Y-184250D01*
X294250D01*
Y-174250D01*
D02*
G37*
G36*
X313250Y-197250D02*
X323250D01*
Y-207250D01*
X336250D01*
Y-214250D01*
X313250D01*
Y-197250D01*
D02*
G37*
G36*
Y-167250D02*
X336250D01*
Y-174250D01*
X323250D01*
Y-184250D01*
X313250D01*
Y-167250D01*
D02*
G37*
G36*
X716666Y-366666D02*
X350000D01*
Y-262578D01*
X366500D01*
Y-273000D01*
X393500D01*
Y-264078D01*
X405922D01*
Y-300000D01*
X405922Y-300000D01*
X406181Y-301302D01*
X406232Y-301561D01*
X407116Y-302884D01*
X417116Y-312884D01*
X417116Y-312884D01*
X418439Y-313768D01*
X420000Y-314078D01*
X487657D01*
X487657Y-314078D01*
X488959Y-313819D01*
X489218Y-313768D01*
X490541Y-312884D01*
X492884Y-310541D01*
X492884Y-310541D01*
X493768Y-309218D01*
X494078Y-307657D01*
Y-294000D01*
X517000D01*
Y-258000D01*
X463000D01*
Y-294000D01*
X485922D01*
Y-305922D01*
X421689D01*
X414078Y-298311D01*
Y-262343D01*
X413768Y-260782D01*
X412884Y-259459D01*
X412884Y-259459D01*
X410541Y-257116D01*
X409218Y-256232D01*
X408959Y-256181D01*
X407657Y-255922D01*
X407657Y-255922D01*
X393500D01*
Y-244000D01*
X384078D01*
Y-242343D01*
X383768Y-240782D01*
X382884Y-239459D01*
X382884Y-239459D01*
X380541Y-237116D01*
X379218Y-236232D01*
X378959Y-236181D01*
X377657Y-235922D01*
X377657Y-235922D01*
X350000D01*
Y-217060D01*
X353800D01*
Y-217500D01*
X383800D01*
Y-202500D01*
X353800D01*
Y-202940D01*
X350000D01*
Y-181118D01*
X353260D01*
Y-183040D01*
X367530D01*
Y-175000D01*
Y-166960D01*
X353260D01*
Y-168883D01*
X350000D01*
Y-3334D01*
X716666D01*
Y-366666D01*
D02*
G37*
G36*
X366500Y-254422D02*
X350000D01*
Y-244078D01*
X366500D01*
Y-254422D01*
D02*
G37*
%LPC*%
G36*
X227540Y-101270D02*
X214270D01*
Y-119040D01*
X227540D01*
Y-101270D01*
D02*
G37*
G36*
X211730D02*
X198460D01*
Y-119040D01*
X211730D01*
Y-101270D01*
D02*
G37*
G36*
X20070Y-112119D02*
Y-123330D01*
X31281D01*
X31017Y-121326D01*
X29754Y-118276D01*
X27744Y-115656D01*
X25124Y-113646D01*
X22074Y-112383D01*
X20070Y-112119D01*
D02*
G37*
G36*
X17530D02*
X15526Y-112383D01*
X12476Y-113646D01*
X9857Y-115656D01*
X7846Y-118276D01*
X6583Y-121326D01*
X6319Y-123330D01*
X17530D01*
Y-112119D01*
D02*
G37*
G36*
X31281Y-125870D02*
X20070D01*
Y-137081D01*
X22074Y-136817D01*
X25124Y-135554D01*
X27744Y-133544D01*
X29754Y-130924D01*
X31017Y-127874D01*
X31281Y-125870D01*
D02*
G37*
G36*
X17530D02*
X6319D01*
X6583Y-127874D01*
X7846Y-130924D01*
X9857Y-133544D01*
X12476Y-135554D01*
X15526Y-136817D01*
X17530Y-137081D01*
Y-125870D01*
D02*
G37*
G36*
X212500Y-153750D02*
X203500D01*
Y-155922D01*
X200000D01*
X200000Y-155922D01*
X190000D01*
X188439Y-156232D01*
X187116Y-157116D01*
X180311Y-163922D01*
X173300D01*
Y-161000D01*
X163300D01*
Y-175000D01*
X173300D01*
Y-172078D01*
X182000D01*
X182000Y-172078D01*
X183561Y-171768D01*
X184884Y-170884D01*
X191689Y-164078D01*
X200000D01*
X200000Y-164078D01*
X200000Y-164078D01*
X203500D01*
Y-166250D01*
X212500D01*
Y-164078D01*
X226672D01*
Y-167750D01*
X226672Y-167750D01*
X226750Y-168144D01*
Y-176250D01*
X238940D01*
X239164Y-176250D01*
X240210Y-176790D01*
X240296Y-176790D01*
X245730D01*
Y-170000D01*
Y-163210D01*
X240296D01*
X240210Y-163210D01*
X239164Y-163750D01*
X238940Y-163750D01*
X234828D01*
Y-160750D01*
X234828Y-160750D01*
X234518Y-159189D01*
X233634Y-157866D01*
X232884Y-157116D01*
X231561Y-156232D01*
X230000Y-155922D01*
X230000Y-155922D01*
X212500D01*
Y-153750D01*
D02*
G37*
G36*
X161000Y-81500D02*
X133000D01*
Y-92940D01*
X105858D01*
X104031Y-93180D01*
X102328Y-93885D01*
X100865Y-95008D01*
X95008Y-100865D01*
X93885Y-102328D01*
X93180Y-104031D01*
X92940Y-105858D01*
Y-112950D01*
X82250D01*
Y-134750D01*
X117750D01*
Y-112950D01*
X107060D01*
Y-108782D01*
X108782Y-107060D01*
X133000D01*
Y-118500D01*
X142240D01*
Y-168000D01*
X142480Y-169827D01*
X143186Y-171530D01*
X144300Y-172983D01*
Y-175000D01*
X148841D01*
X149300Y-175060D01*
X149759Y-175000D01*
X154300D01*
Y-172983D01*
X155415Y-171530D01*
X156120Y-169827D01*
X156361Y-168000D01*
Y-118500D01*
X161000D01*
Y-81500D01*
D02*
G37*
G36*
X24800Y-163400D02*
X12800D01*
X6800Y-169400D01*
Y-181400D01*
X12800Y-187400D01*
X24800D01*
X29365Y-182835D01*
X82250D01*
Y-187050D01*
X117750D01*
Y-165250D01*
X82250D01*
Y-168715D01*
X30115D01*
X24800Y-163400D01*
D02*
G37*
G36*
X256790Y-186210D02*
X251270D01*
Y-191730D01*
X256790D01*
Y-186210D01*
D02*
G37*
G36*
X248730D02*
X243210D01*
Y-191730D01*
X248730D01*
Y-186210D01*
D02*
G37*
G36*
X680000Y-7901D02*
X674979Y-8296D01*
X670081Y-9472D01*
X665427Y-11400D01*
X661133Y-14031D01*
X657303Y-17303D01*
X654031Y-21133D01*
X651400Y-25427D01*
X649472Y-30081D01*
X648296Y-34979D01*
X647901Y-40000D01*
X648296Y-45021D01*
X649472Y-49919D01*
X651400Y-54573D01*
X654031Y-58867D01*
X657303Y-62697D01*
X661133Y-65969D01*
X665427Y-68600D01*
X670081Y-70528D01*
X674979Y-71704D01*
X680000Y-72099D01*
X685021Y-71704D01*
X689919Y-70528D01*
X694573Y-68600D01*
X698867Y-65969D01*
X702697Y-62697D01*
X705969Y-58867D01*
X708600Y-54573D01*
X710528Y-49919D01*
X711704Y-45021D01*
X712099Y-40000D01*
X711704Y-34979D01*
X710528Y-30081D01*
X708600Y-25427D01*
X705969Y-21133D01*
X702697Y-17303D01*
X698867Y-14031D01*
X694573Y-11400D01*
X689919Y-9472D01*
X685021Y-8296D01*
X680000Y-7901D01*
D02*
G37*
G36*
X706000Y-112600D02*
X694000D01*
X688000Y-118600D01*
Y-130600D01*
X694000Y-136600D01*
X706000D01*
X712000Y-130600D01*
Y-118600D01*
X706000Y-112600D01*
D02*
G37*
G36*
X630000Y-113882D02*
X627659Y-114348D01*
X625674Y-115674D01*
X624348Y-117659D01*
X623882Y-120000D01*
Y-127466D01*
X618349Y-133000D01*
X610000D01*
Y-147000D01*
X630000D01*
Y-138652D01*
X634326Y-134326D01*
X635652Y-132341D01*
X636118Y-130000D01*
Y-120000D01*
X635652Y-117659D01*
X634326Y-115674D01*
X632341Y-114348D01*
X630000Y-113882D01*
D02*
G37*
G36*
X580000D02*
X577659Y-114348D01*
X575674Y-115674D01*
X569674Y-121674D01*
X568348Y-123659D01*
X567882Y-126000D01*
Y-133000D01*
X560000D01*
Y-147000D01*
X580000D01*
Y-139591D01*
X580118Y-139000D01*
Y-128534D01*
X584326Y-124326D01*
X585652Y-122341D01*
X586118Y-120000D01*
X585652Y-117659D01*
X584326Y-115674D01*
X582341Y-114348D01*
X580000Y-113882D01*
D02*
G37*
G36*
X630540Y-162460D02*
X621270D01*
Y-168730D01*
X630540D01*
Y-162460D01*
D02*
G37*
G36*
X580540D02*
X571270D01*
Y-168730D01*
X580540D01*
Y-162460D01*
D02*
G37*
G36*
X568730D02*
X559460D01*
Y-168730D01*
X568730D01*
Y-162460D01*
D02*
G37*
G36*
X618730D02*
X609460D01*
Y-168730D01*
X618730D01*
Y-162460D01*
D02*
G37*
G36*
X384340Y-166960D02*
X370070D01*
Y-173730D01*
X384340D01*
Y-166960D01*
D02*
G37*
G36*
X701270Y-162919D02*
Y-174130D01*
X712481D01*
X712217Y-172126D01*
X710954Y-169076D01*
X708944Y-166456D01*
X706324Y-164446D01*
X703274Y-163183D01*
X701270Y-162919D01*
D02*
G37*
G36*
X698730D02*
X696726Y-163183D01*
X693676Y-164446D01*
X691056Y-166456D01*
X689046Y-169076D01*
X687783Y-172126D01*
X687519Y-174130D01*
X698730D01*
Y-162919D01*
D02*
G37*
G36*
X630540Y-171270D02*
X621270D01*
Y-177540D01*
X630540D01*
Y-171270D01*
D02*
G37*
G36*
X618730D02*
X609460D01*
Y-177540D01*
X618730D01*
Y-171270D01*
D02*
G37*
G36*
X580540D02*
X571270D01*
Y-177540D01*
X580540D01*
Y-171270D01*
D02*
G37*
G36*
X568730D02*
X559460D01*
Y-177540D01*
X568730D01*
Y-171270D01*
D02*
G37*
G36*
X490000Y-112918D02*
X486667Y-113246D01*
X483463Y-114218D01*
X480510Y-115797D01*
X477921Y-117921D01*
X475797Y-120510D01*
X474218Y-123463D01*
X473246Y-126667D01*
X472918Y-130000D01*
Y-146000D01*
X463000D01*
Y-182000D01*
X517000D01*
Y-146000D01*
X507082D01*
Y-130000D01*
X506754Y-126667D01*
X505782Y-123463D01*
X504203Y-120510D01*
X502079Y-117921D01*
X499490Y-115797D01*
X496537Y-114218D01*
X493333Y-113246D01*
X490000Y-112918D01*
D02*
G37*
G36*
X384340Y-176270D02*
X370070D01*
Y-183040D01*
X384340D01*
Y-176270D01*
D02*
G37*
G36*
X698730Y-176670D02*
X687519D01*
X687783Y-178674D01*
X689046Y-181724D01*
X691056Y-184344D01*
X693676Y-186354D01*
X696726Y-187617D01*
X698730Y-187881D01*
Y-176670D01*
D02*
G37*
G36*
X712481D02*
X701270D01*
Y-187881D01*
X703274Y-187617D01*
X706324Y-186354D01*
X708944Y-184344D01*
X710954Y-181724D01*
X712217Y-178674D01*
X712481Y-176670D01*
D02*
G37*
G36*
X394040Y-286460D02*
X381270D01*
Y-300230D01*
X394040D01*
Y-286460D01*
D02*
G37*
G36*
X378730D02*
X365960D01*
Y-300230D01*
X378730D01*
Y-286460D01*
D02*
G37*
G36*
X394040Y-302770D02*
X381270D01*
Y-316540D01*
X394040D01*
Y-302770D01*
D02*
G37*
G36*
X378730D02*
X365960D01*
Y-316540D01*
X378730D01*
Y-302770D01*
D02*
G37*
G36*
X680000Y-297901D02*
X674979Y-298296D01*
X670081Y-299472D01*
X665427Y-301400D01*
X661133Y-304031D01*
X657303Y-307303D01*
X654031Y-311133D01*
X651400Y-315427D01*
X649472Y-320081D01*
X648296Y-324979D01*
X647901Y-330000D01*
X648296Y-335021D01*
X649472Y-339919D01*
X651400Y-344573D01*
X654031Y-348867D01*
X657303Y-352697D01*
X661133Y-355969D01*
X665427Y-358600D01*
X670081Y-360528D01*
X674979Y-361704D01*
X680000Y-362099D01*
X685021Y-361704D01*
X689919Y-360528D01*
X694573Y-358600D01*
X698867Y-355969D01*
X702697Y-352697D01*
X705969Y-348867D01*
X708600Y-344573D01*
X710528Y-339919D01*
X711704Y-335021D01*
X712099Y-330000D01*
X711704Y-324979D01*
X710528Y-320081D01*
X708600Y-315427D01*
X705969Y-311133D01*
X702697Y-307303D01*
X698867Y-304031D01*
X694573Y-301400D01*
X689919Y-299472D01*
X685021Y-298296D01*
X680000Y-297901D01*
D02*
G37*
%LPD*%
D10*
X208000Y-160000D02*
D03*
Y-186000D02*
D03*
D11*
X147000Y-100000D02*
D03*
X213000D02*
D03*
D12*
X158800Y-192000D02*
D03*
X149300Y-168000D02*
D03*
X168300D02*
D03*
D13*
X250000Y-207000D02*
D03*
Y-193000D02*
D03*
X220000Y-266000D02*
D03*
Y-280000D02*
D03*
Y-320000D02*
D03*
Y-334000D02*
D03*
X340000Y-287000D02*
D03*
Y-273000D02*
D03*
D14*
X100000Y-123850D02*
D03*
Y-176150D02*
D03*
D15*
X300000Y-180000D02*
D03*
Y-201500D02*
D03*
X317500Y-180000D02*
D03*
Y-201500D02*
D03*
D16*
X368800Y-210000D02*
D03*
Y-175000D02*
D03*
D17*
X233000Y-170000D02*
D03*
X247000D02*
D03*
X263000Y-240000D02*
D03*
X277000D02*
D03*
D18*
X490000Y-164000D02*
D03*
Y-276000D02*
D03*
D19*
X276500Y-277000D02*
D03*
D20*
X301250Y-257950D02*
D03*
Y-270650D02*
D03*
Y-283350D02*
D03*
Y-296050D02*
D03*
X251750D02*
D03*
Y-283350D02*
D03*
Y-270650D02*
D03*
Y-257950D02*
D03*
D21*
X380000Y-301500D02*
D03*
Y-258500D02*
D03*
D22*
X570000Y-170000D02*
D03*
Y-140000D02*
D03*
X620000Y-170000D02*
D03*
Y-140000D02*
D03*
D23*
X158800Y-192000D02*
X178000D01*
X184000Y-186000D01*
X208000D01*
Y-198000D02*
Y-186000D01*
Y-198000D02*
X217000Y-207000D01*
X250000D01*
X230750Y-167750D02*
X233000Y-170000D01*
X230750Y-167750D02*
Y-160750D01*
X230000Y-160000D02*
X230750Y-160750D01*
X208000Y-160000D02*
X230000D01*
X233000Y-170000D02*
X233000Y-170000D01*
X200000Y-160000D02*
X200000Y-160000D01*
X190000Y-160000D02*
X200000D01*
X182000Y-168000D02*
X190000Y-160000D01*
X200000Y-160000D02*
X208000D01*
X168300Y-168000D02*
X182000D01*
X316050Y-296050D02*
X320000Y-300000D01*
X301250Y-296050D02*
X316050D01*
X321891Y-287000D02*
X340000D01*
X318241Y-283350D02*
X321891Y-287000D01*
X301250Y-283350D02*
X318241D01*
X410000Y-300000D02*
Y-262343D01*
X380000Y-258500D02*
X381500Y-260000D01*
X407657D01*
X410000Y-262343D01*
Y-300000D02*
X420000Y-310000D01*
X487657D01*
X490000Y-307657D02*
Y-276000D01*
X487657Y-310000D02*
X490000Y-307657D01*
X270000Y-210000D02*
X297657D01*
X298250Y-203250D02*
X300000Y-201500D01*
X298250Y-209407D02*
Y-203250D01*
X297657Y-210000D02*
X298250Y-209407D01*
X250000Y-207000D02*
X267000D01*
X270000Y-210000D01*
X230000Y-250000D02*
Y-242343D01*
X232343Y-240000D02*
X263000D01*
X230000Y-242343D02*
X232343Y-240000D01*
X237950Y-257950D02*
X251750D01*
X230000Y-250000D02*
X237950Y-257950D01*
X277000Y-240000D02*
X377657D01*
X380000Y-258500D02*
Y-242343D01*
X377657Y-240000D02*
X380000Y-242343D01*
X318207Y-258500D02*
X380000D01*
X317657Y-257950D02*
X318207Y-258500D01*
X220000Y-300000D02*
X223950Y-296050D01*
X220000Y-320000D02*
Y-300000D01*
X223950Y-296050D02*
X251750D01*
X301250Y-257950D02*
X317657D01*
X250750Y-256950D02*
X251750Y-257950D01*
X233350Y-283350D02*
X251750D01*
X230000Y-280000D02*
X233350Y-283350D01*
X230000Y-280000D02*
X230000Y-280000D01*
X220000Y-280000D02*
X230000D01*
D24*
X149300Y-168000D02*
Y-102300D01*
X147000Y-100000D02*
X149300Y-102300D01*
X100000Y-123850D02*
Y-105858D01*
X105858Y-100000D02*
X147000D01*
X100000Y-105858D02*
X105858Y-100000D01*
X99625Y-175775D02*
X100000Y-176150D01*
X19175Y-175775D02*
X99625D01*
X18800Y-175400D02*
X19175Y-175775D01*
X320000Y-210000D02*
X368800D01*
D25*
X320000Y-270000D02*
X323000Y-273000D01*
X340000D01*
X319350Y-270650D02*
X320000Y-270000D01*
X301250Y-270650D02*
X319350D01*
X320000Y-230000D02*
Y-210000D01*
X200000Y-270000D02*
X210000D01*
X213750Y-266250D01*
X219750D01*
X220000Y-266000D01*
X220000Y-350000D02*
X220000Y-350000D01*
X220000Y-334000D02*
X220000Y-334000D01*
X574000Y-126000D02*
X580000Y-120000D01*
X570000Y-140000D02*
X573000D01*
X574000Y-139000D01*
Y-126000D01*
X630000Y-130000D02*
Y-120000D01*
X620000Y-140000D02*
X630000Y-130000D01*
X220000Y-350000D02*
Y-334000D01*
X324686Y-170000D02*
X335500D01*
X317500Y-180000D02*
X320000Y-177500D01*
Y-174686D01*
X324686Y-170000D01*
X335500D02*
X340500Y-175000D01*
X368800D01*
X247000Y-170000D02*
X290000D01*
X220000Y-266000D02*
X236250D01*
X239900Y-269650D01*
X250750D01*
X251750Y-270650D01*
D26*
X490000Y-164000D02*
Y-130000D01*
D27*
X270000Y-264000D02*
D03*
X283000D02*
D03*
X270000Y-290000D02*
D03*
X283000D02*
D03*
Y-277000D02*
D03*
X270000D02*
D03*
D28*
X18800Y-124600D02*
D03*
X700000Y-175400D02*
D03*
D29*
X18800D02*
D03*
X700000Y-124600D02*
D03*
D30*
X680000Y-40000D02*
D03*
X40000Y-330000D02*
D03*
Y-40000D02*
D03*
X680000Y-330000D02*
D03*
D31*
X320000Y-270000D02*
D03*
Y-230000D02*
D03*
X490000Y-130000D02*
D03*
X200000Y-270000D02*
D03*
X280000Y-360000D02*
D03*
X220000Y-350000D02*
D03*
X580000Y-120000D02*
D03*
X630000D02*
D03*
X310000Y-360000D02*
D03*
X320000Y-300000D02*
D03*
%TF.MD5,b3da40e5d44d0360219aacecc7a085ab*%
M02*
