%TF.GenerationSoftware,Altium Limited,Altium Designer,20.0.13 (296)*%
G04 Layer_Color=16711935*
%FSLAX44Y44*%
%MOMM*%
%TF.FileFunction,Other,Mechanical_1*%
%TF.Part,Single*%
G01*
G75*
%TA.AperFunction,OtherPad,Pad VD2-5 (21mm,-18mm)*%
%ADD54C,0.5000*%
%TA.AperFunction,OtherPad,Free Pad (16.98mm,-17.1mm)*%
%ADD55C,0.5000*%
%TA.AperFunction,OtherPad,Pad X1-14 (5.78mm,-19.5mm)*%
%ADD56C,0.5000*%
%TA.AperFunction,OtherPad,Pad X2-14 (66.1mm,-10.5mm)*%
%ADD57C,0.5000*%
%TA.AperFunction,NonConductor*%
%ADD58C,0.1000*%
D54*
X210000Y-180000D02*
D03*
D55*
X169800Y-171000D02*
D03*
D56*
X57800Y-195000D02*
D03*
D57*
X661000Y-105000D02*
D03*
D58*
X201999Y-184499D02*
X213999D01*
Y-161499D01*
X201999D02*
X213999D01*
X201999Y-184499D02*
Y-161499D01*
X139361Y-68504D02*
X220641D01*
Y-131496D02*
Y-68504D01*
X139361Y-131496D02*
X220641D01*
X139361D02*
Y-68504D01*
X195000Y-131496D02*
Y-68504D01*
X284000Y-348000D02*
Y-332000D01*
X275999Y-348000D02*
Y-332000D01*
Y-348000D02*
X284000D01*
X275999Y-332000D02*
X284000D01*
X306000Y-348000D02*
Y-332000D01*
X314001Y-348000D02*
Y-332000D01*
X306000D02*
X314001D01*
X306000Y-348000D02*
X314001D01*
X143600Y-166800D02*
X174000D01*
X143600Y-193200D02*
Y-166800D01*
Y-193200D02*
X174000D01*
Y-166800D01*
X-26750Y-200800D02*
Y-99200D01*
X63250D01*
Y-200800D02*
Y-99200D01*
X-26750Y-200800D02*
X63250D01*
X246000Y-208000D02*
Y-192000D01*
X254001Y-208000D02*
Y-192000D01*
X246000Y-208000D02*
X254001D01*
X246000Y-192000D02*
X254001D01*
X356356Y-172500D02*
X381247D01*
X356356Y-212504D02*
Y-172500D01*
Y-212504D02*
X381247D01*
Y-172500D01*
X232000Y-166000D02*
X248000D01*
X232000Y-174001D02*
X248000D01*
X232000D02*
Y-166000D01*
X248000Y-174001D02*
Y-166000D01*
X262000Y-236000D02*
X278000D01*
X262000Y-244001D02*
X278000D01*
X262000D02*
Y-236000D01*
X278000Y-244001D02*
Y-236000D01*
X427502Y-283002D02*
Y-154002D01*
X552501Y-283002D02*
Y-154002D01*
X427502Y-283002D02*
X552501D01*
X427502Y-154002D02*
X552501D01*
X224000Y-281000D02*
Y-265000D01*
X215999Y-281000D02*
Y-265000D01*
X224000D01*
X215999Y-281000D02*
X224000D01*
X360501Y-275000D02*
X399501D01*
X360501Y-307501D02*
X399501D01*
X399501Y-252501D02*
X399501Y-307501D01*
X360501Y-252501D02*
X399501D01*
X360501Y-307501D02*
Y-252501D01*
X562250Y-171000D02*
X577750D01*
X562250Y-139000D02*
X577750D01*
X562250Y-171000D02*
Y-139000D01*
X577750Y-171000D02*
Y-139000D01*
X612250Y-171000D02*
X627750D01*
X612250Y-139000D02*
X627750D01*
X612250Y-171000D02*
Y-139000D01*
X627750Y-171000D02*
Y-139000D01*
X224000Y-335000D02*
Y-319000D01*
X215999Y-335000D02*
Y-319000D01*
X224000D01*
X215999Y-335000D02*
X224000D01*
X336000Y-288000D02*
Y-272000D01*
X344001Y-288000D02*
Y-272000D01*
X336000Y-288000D02*
X344001D01*
X336000Y-272000D02*
X344001D01*
X745550Y-200800D02*
Y-99200D01*
X655550Y-200800D02*
X745550D01*
X655550D02*
Y-99200D01*
X745550D01*
%TF.MD5,9c3b4aa992cf9fb665918109136f814a*%
M02*
