%TF.GenerationSoftware,Altium Limited,Altium Designer,20.0.13 (296)*%
G04 Layer_Color=8421504*
%FSLAX44Y44*%
%MOMM*%
%TF.FileFunction,Paste,Top*%
%TF.Part,Single*%
G01*
G75*
%TA.AperFunction,SMDPad,CuDef*%
%ADD10R,5.0000X3.2000*%
%ADD11R,1.6000X1.0000*%
%ADD12R,0.5000X0.8500*%
%ADD13R,2.4000X3.3000*%
%ADD14R,0.6000X1.0000*%
%ADD15R,0.8500X0.8500*%
%ADD16R,3.1500X1.7800*%
%ADD17R,0.7500X0.7500*%
%ADD18R,2.6000X1.1000*%
%ADD19R,0.8500X0.8500*%
G04:AMPARAMS|DCode=21|XSize=1.97mm|YSize=0.6mm|CornerRadius=0.075mm|HoleSize=0mm|Usage=FLASHONLY|Rotation=0.000|XOffset=0mm|YOffset=0mm|HoleType=Round|Shape=RoundedRectangle|*
%AMROUNDEDRECTD21*
21,1,1.9700,0.4500,0,0,0.0*
21,1,1.8200,0.6000,0,0,0.0*
1,1,0.1500,0.9100,-0.2250*
1,1,0.1500,-0.9100,-0.2250*
1,1,0.1500,-0.9100,0.2250*
1,1,0.1500,0.9100,0.2250*
%
%ADD21ROUNDEDRECTD21*%
%ADD22R,2.3000X2.5000*%
G36*
X281250Y-207250D02*
X294250D01*
Y-197250D01*
X304250D01*
Y-214250D01*
X281250D01*
Y-207250D01*
D02*
G37*
G36*
X294250Y-174250D02*
X281250D01*
Y-167250D01*
X304250D01*
Y-184250D01*
X294250D01*
Y-174250D01*
D02*
G37*
G36*
X313250Y-197250D02*
X323250D01*
Y-207250D01*
X336250D01*
Y-214250D01*
X313250D01*
Y-197250D01*
D02*
G37*
G36*
Y-167250D02*
X336250D01*
Y-174250D01*
X323250D01*
Y-184250D01*
X313250D01*
Y-167250D01*
D02*
G37*
G36*
X450200Y-234900D02*
X442100D01*
Y-223300D01*
X450200D01*
Y-234900D01*
D02*
G37*
G36*
X460900D02*
X452800D01*
Y-223300D01*
X460900D01*
Y-234900D01*
D02*
G37*
G36*
X450200Y-220700D02*
X442100D01*
Y-209100D01*
X450200D01*
Y-220700D01*
D02*
G37*
G36*
X460900D02*
X452800D01*
Y-209100D01*
X460900D01*
Y-220700D01*
D02*
G37*
D10*
X535000Y-176000D02*
D03*
Y-64000D02*
D03*
D11*
X620000Y-135000D02*
D03*
Y-165000D02*
D03*
Y-95000D02*
D03*
Y-65000D02*
D03*
D12*
X208000Y-160000D02*
D03*
Y-186000D02*
D03*
D13*
X147000Y-100000D02*
D03*
X213000D02*
D03*
D14*
X158800Y-192000D02*
D03*
X149300Y-168000D02*
D03*
X168300D02*
D03*
D15*
X250000Y-207000D02*
D03*
Y-193000D02*
D03*
X425000Y-187000D02*
D03*
Y-173000D02*
D03*
X395000Y-211000D02*
D03*
Y-225000D02*
D03*
Y-265000D02*
D03*
Y-279000D02*
D03*
X515000Y-232000D02*
D03*
Y-218000D02*
D03*
D16*
X100000Y-123850D02*
D03*
Y-176150D02*
D03*
D17*
X300000Y-180000D02*
D03*
Y-201500D02*
D03*
X317500Y-180000D02*
D03*
Y-201500D02*
D03*
D18*
X368800Y-210000D02*
D03*
Y-175000D02*
D03*
D19*
X233000Y-170000D02*
D03*
X247000D02*
D03*
D21*
X476250Y-202950D02*
D03*
Y-215650D02*
D03*
Y-228350D02*
D03*
Y-241050D02*
D03*
X426750D02*
D03*
Y-228350D02*
D03*
Y-215650D02*
D03*
Y-202950D02*
D03*
D22*
X555000Y-266500D02*
D03*
Y-223500D02*
D03*
%TF.MD5,715c9640555fa346c40802d99b75c63b*%
M02*
