%TF.GenerationSoftware,Altium Limited,Altium Designer,20.0.13 (296)*%
G04 Layer_Color=16711935*
%FSLAX44Y44*%
%MOMM*%
%TF.FileFunction,Soldermask,Bot*%
%TF.Part,Single*%
G01*
G75*
%TA.AperFunction,SMDPad,CuDef*%
%ADD33R,1.0532X1.0532*%
%TA.AperFunction,ComponentPad*%
%ADD34C,0.6040*%
%ADD35C,2.2032*%
G04:AMPARAMS|DCode=36|XSize=2.2032mm|YSize=2.2032mm|CornerRadius=0mm|HoleSize=0mm|Usage=FLASHONLY|Rotation=90.000|XOffset=0mm|YOffset=0mm|HoleType=Round|Shape=Octagon|*
%AMOCTAGOND36*
4,1,8,0.5508,1.1016,-0.5508,1.1016,-1.1016,0.5508,-1.1016,-0.5508,-0.5508,-1.1016,0.5508,-1.1016,1.1016,-0.5508,1.1016,0.5508,0.5508,1.1016,0.0*
%
%ADD36OCTAGOND36*%

%TA.AperFunction,ViaPad*%
%ADD37C,6.2032*%
%ADD38C,0.8032*%
%ADD39C,1.0032*%
D33*
X495000Y-272000D02*
D03*
Y-258000D02*
D03*
X475000D02*
D03*
Y-272000D02*
D03*
D34*
X445000Y-209000D02*
D03*
X458000D02*
D03*
X445000Y-235000D02*
D03*
X458000D02*
D03*
Y-222000D02*
D03*
X445000D02*
D03*
D35*
X18800Y-124600D02*
D03*
X700000Y-175400D02*
D03*
D36*
X18800D02*
D03*
X700000Y-124600D02*
D03*
D37*
X680000Y-40000D02*
D03*
X40000Y-330000D02*
D03*
Y-40000D02*
D03*
X680000Y-330000D02*
D03*
D38*
X625000Y-120000D02*
D03*
Y-50000D02*
D03*
X480000Y-170000D02*
D03*
X440000D02*
D03*
X475000Y-285000D02*
D03*
X395000Y-295000D02*
D03*
X495000Y-285000D02*
D03*
Y-245000D02*
D03*
D39*
X535000Y-65000D02*
D03*
%TF.MD5,0f1cf13ce607248da8b51cafff81b431*%
M02*
