%TF.GenerationSoftware,Altium Limited,Altium Designer,20.0.13 (296)*%
G04 Layer_Color=8388736*
%FSLAX44Y44*%
%MOMM*%
%TF.FileFunction,Soldermask,Top*%
%TF.Part,Single*%
G01*
G75*
%TA.AperFunction,SMDPad,CuDef*%
%ADD33R,1.0532X1.0532*%
%TA.AperFunction,ComponentPad*%
%ADD34C,0.6040*%
%ADD35C,2.2032*%
G04:AMPARAMS|DCode=36|XSize=2.2032mm|YSize=2.2032mm|CornerRadius=0mm|HoleSize=0mm|Usage=FLASHONLY|Rotation=90.000|XOffset=0mm|YOffset=0mm|HoleType=Round|Shape=Octagon|*
%AMOCTAGOND36*
4,1,8,0.5508,1.1016,-0.5508,1.1016,-1.1016,0.5508,-1.1016,-0.5508,-0.5508,-1.1016,0.5508,-1.1016,1.1016,-0.5508,1.1016,0.5508,0.5508,1.1016,0.0*
%
%ADD36OCTAGOND36*%

%TA.AperFunction,ViaPad*%
%ADD37C,6.2032*%
%ADD38C,0.8032*%
%TA.AperFunction,SMDPad,CuDef*%
%ADD42R,0.7032X1.0532*%
%ADD43R,2.6032X3.5032*%
%ADD44R,0.8032X1.2032*%
%ADD45R,3.3532X1.9832*%
%ADD46R,0.9532X0.9532*%
%ADD47R,2.8032X1.3032*%
%ADD48R,1.0532X1.0532*%
%ADD49R,5.2032X3.4032*%
G04:AMPARAMS|DCode=50|XSize=2.174mm|YSize=0.804mm|CornerRadius=0.177mm|HoleSize=0mm|Usage=FLASHONLY|Rotation=0.000|XOffset=0mm|YOffset=0mm|HoleType=Round|Shape=RoundedRectangle|*
%AMROUNDEDRECTD50*
21,1,2.1740,0.4500,0,0,0.0*
21,1,1.8200,0.8040,0,0,0.0*
1,1,0.3540,0.9100,-0.2250*
1,1,0.3540,-0.9100,-0.2250*
1,1,0.3540,-0.9100,0.2250*
1,1,0.3540,0.9100,0.2250*
%
%ADD50ROUNDEDRECTD50*%
%ADD51R,2.5032X2.7032*%
%ADD52R,1.8032X1.2032*%
G36*
X337250Y-175250D02*
X324250D01*
Y-185250D01*
X312250D01*
Y-166250D01*
X337250D01*
Y-175250D01*
D02*
G37*
G36*
X305250Y-185250D02*
X293250D01*
Y-175250D01*
X280250D01*
Y-166250D01*
X305250D01*
Y-185250D01*
D02*
G37*
G36*
X324250Y-206250D02*
X337250D01*
Y-215250D01*
X312250D01*
Y-196250D01*
X324250D01*
Y-206250D01*
D02*
G37*
G36*
X305250Y-215250D02*
X280250D01*
Y-206250D01*
X293250D01*
Y-196250D01*
X305250D01*
Y-215250D01*
D02*
G37*
G36*
X291250Y-301500D02*
X261750D01*
Y-252500D01*
X291250D01*
Y-301500D01*
D02*
G37*
D33*
X250000Y-207000D02*
D03*
Y-193000D02*
D03*
X220000Y-266000D02*
D03*
Y-280000D02*
D03*
Y-320000D02*
D03*
Y-334000D02*
D03*
X340000Y-287000D02*
D03*
Y-273000D02*
D03*
D34*
X270000Y-264000D02*
D03*
X283000D02*
D03*
X270000Y-290000D02*
D03*
X283000D02*
D03*
Y-277000D02*
D03*
X270000D02*
D03*
D35*
X18800Y-124600D02*
D03*
X700000Y-175400D02*
D03*
D36*
X18800D02*
D03*
X700000Y-124600D02*
D03*
D37*
X680000Y-40000D02*
D03*
X40000Y-330000D02*
D03*
Y-40000D02*
D03*
X680000Y-330000D02*
D03*
D38*
X320000Y-270000D02*
D03*
Y-230000D02*
D03*
X490000Y-130000D02*
D03*
X200000Y-270000D02*
D03*
X280000Y-360000D02*
D03*
X220000Y-350000D02*
D03*
X580000Y-120000D02*
D03*
X630000D02*
D03*
X310000Y-360000D02*
D03*
X320000Y-300000D02*
D03*
D42*
X208000Y-160000D02*
D03*
Y-186000D02*
D03*
D43*
X147000Y-100000D02*
D03*
X213000D02*
D03*
D44*
X158800Y-192000D02*
D03*
X149300Y-168000D02*
D03*
X168300D02*
D03*
D45*
X100000Y-123850D02*
D03*
Y-176150D02*
D03*
D46*
X300000Y-180000D02*
D03*
Y-201500D02*
D03*
X317500Y-180000D02*
D03*
Y-201500D02*
D03*
D47*
X368800Y-210000D02*
D03*
Y-175000D02*
D03*
D48*
X233000Y-170000D02*
D03*
X247000D02*
D03*
X263000Y-240000D02*
D03*
X277000D02*
D03*
D49*
X490000Y-164000D02*
D03*
Y-276000D02*
D03*
D50*
X301250Y-257950D02*
D03*
Y-270650D02*
D03*
Y-283350D02*
D03*
Y-296050D02*
D03*
X251750D02*
D03*
Y-283350D02*
D03*
Y-270650D02*
D03*
Y-257950D02*
D03*
D51*
X380000Y-301500D02*
D03*
Y-258500D02*
D03*
D52*
X570000Y-170000D02*
D03*
Y-140000D02*
D03*
X620000Y-170000D02*
D03*
Y-140000D02*
D03*
%TF.MD5,6a6c7bed39d79038cb0736adb884cb41*%
M02*
