M48
;Layer_Color=9474304
;FILE_FORMAT=4:4
METRIC,LZ
;TYPE=PLATED
T1F00S00C0.3000
T2F00S00C0.4000
T3F00S00C1.2000
T4F00S00C3.2000
%
T01
X00395Y-00295
X00475Y-00285
X00495
Y-00245
X00458Y-00235
Y-00222
Y-00209
X00445
Y-00222
Y-00235
X0044Y-0017
X0048
X00625Y-0012
Y-0005
T02
X00535Y-00065
T03
X000188Y-001754
Y-001246
X007
Y-001754
T04
X0068Y-0033
X0004
Y-0004
X0068
M30
