M48
;Layer_Color=9474304
;FILE_FORMAT=4:4
METRIC,LZ
;TYPE=PLATED
T1F00S00C0.3000
T2F00S00C1.2000
T3F00S00C3.2000
%
T01
X0022Y-0035
X0028Y-0036
X0031
X0032Y-003
Y-0027
Y-0023
X00283Y-00264
Y-00277
Y-0029
X0027
Y-00277
Y-00264
X002Y-0027
X0049Y-0013
X0058Y-0012
X0063
T02
X000188Y-001754
Y-001246
X007
Y-001754
T03
X0068Y-0033
X0004
Y-0004
X0068
M30
